<svg xmlns="http://www.w3.org/2000/svg" viewBox="0 0 640 200" fill="none">
  <defs>
    <linearGradient id="hs_g" x1="0" y1="0" x2="1" y2="0">
      <stop offset="0" stop-color="#22D3EE"/>
      <stop offset="1" stop-color="#A78BFA"/>
    </linearGradient>
    <filter id="hs_shadow" x="-20%" y="-30%" width="140%" height="160%">
      <feDropShadow dx="0" dy="14" stdDeviation="16" flood-color="#000000" flood-opacity="0.35"/>
    </filter>
  </defs>
  <rect width="640" height="200" rx="28" fill="#0B1020"/>
  <g filter="url(#hs_shadow)">
    <path d="M120 30c43 26 78 35 78 35v78c0 56-35 91-78 113-43-22-78-57-78-113V65s35-9 78-35z" fill="url(#hs_g)"/>
    <path d="M120 75a9 9 0 0 1 9 9v33h33a9 9 0 1 1 0 18h-33v33a9 9 0 1 1-18 0v-33H78a9 9 0 1 1 0-18h33V84a9 9 0 0 1 9-9z" fill="rgba(11,16,32,0.92)"/>
  </g>
  <g font-family="Inter, ui-sans-serif, system-ui, -apple-system, Segoe UI, Roboto, Arial, sans-serif">
    <text x="240" y="105" font-size="54" font-weight="800" fill="#E5E7EB" letter-spacing="0.2">HyperScan</text>
    <text x="240" y="145" font-size="18" font-weight="500" fill="#A7B0C0">Authorized webapp vulnerability scanner</text>
  </g>
</svg>
